<svg xmlns="http://www.w3.org/2000/svg" xmlns:xlink="http://www.w3.org/1999/xlink" viewBox="232 558 1091 305" preserveAspectRatio="xMidYMid meet" version="1.0"><defs><g/><clipPath id="6b16c2a042"><rect x="0" width="1091" y="0" height="305"/></clipPath><clipPath id="31d7a469bb"><path d="M 409.917969 517.359375 L 591.246094 517.359375 L 591.246094 809.339844 L 409.917969 809.339844 Z M 409.917969 517.359375 " clip-rule="nonzero"/></clipPath><clipPath id="8b32dee503"><path d="M 0.917969 0.359375 L 182.246094 0.359375 L 182.246094 292.339844 L 0.917969 292.339844 Z M 0.917969 0.359375 " clip-rule="nonzero"/></clipPath><clipPath id="00fee502c9"><rect x="0" width="183" y="0" height="293"/></clipPath><clipPath id="437efc7c9e"><path d="M 423 532 L 581 532 L 581 787.464844 L 423 787.464844 Z M 423 532 " clip-rule="nonzero"/></clipPath><clipPath id="bf294d66a9"><path d="M 423 661 L 500 661 L 500 787.464844 L 423 787.464844 Z M 423 661 " clip-rule="nonzero"/></clipPath><clipPath id="6787b08527"><rect x="0" width="903" y="0" height="59"/></clipPath></defs><g transform="matrix(1, 0, 0, 1, 232, 558)"><g clip-path="url(#6b16c2a042)"><g fill="#ffffff" fill-opacity="1"><g transform="translate(1.632878, 224.133575)"><g><path d="M 15.125 0 L 15.125 -169.453125 L 74.4375 -169.453125 C 88.5625 -169.648438 101.171875 -168.285156 112.265625 -165.359375 C 123.359375 -162.441406 132.179688 -158.054688 138.734375 -152.203125 C 145.296875 -146.347656 148.578125 -139.085938 148.578125 -130.421875 C 148.578125 -118.109375 144.035156 -109.078125 134.953125 -103.328125 C 125.878906 -97.585938 114.382812 -93.910156 100.46875 -92.296875 C 107.519531 -91.484375 114.625 -90.066406 121.78125 -88.046875 C 128.945312 -86.035156 135.609375 -83.265625 141.765625 -79.734375 C 147.921875 -76.203125 152.863281 -71.710938 156.59375 -66.265625 C 160.320312 -60.816406 162.1875 -54.363281 162.1875 -46.90625 C 162.1875 -37.425781 158.65625 -29.203125 151.59375 -22.234375 C 144.539062 -15.273438 135.0625 -9.929688 123.15625 -6.203125 C 111.25 -2.472656 98.035156 -0.40625 83.515625 0 Z M 60.828125 -94.109375 L 82 -94.109375 C 87.039062 -94.109375 90.820312 -96.023438 93.34375 -99.859375 C 95.863281 -103.691406 97.628906 -108.378906 98.640625 -113.921875 C 99.648438 -119.472656 100.15625 -124.671875 100.15625 -129.515625 C 100.15625 -140.203125 98.335938 -149.175781 94.703125 -156.4375 C 91.078125 -163.695312 84.722656 -167.328125 75.640625 -167.328125 L 60.828125 -167.328125 Z M 60.828125 -3.03125 L 76.859375 -3.03125 C 89.972656 -3.03125 98.644531 -6.609375 102.875 -13.765625 C 107.113281 -20.929688 109.234375 -31.570312 109.234375 -45.6875 C 109.234375 -61.21875 106.863281 -72.613281 102.125 -79.875 C 97.382812 -87.144531 88.253906 -90.78125 74.734375 -90.78125 L 60.828125 -90.78125 Z M 60.828125 -3.03125 "/></g></g></g><g fill="#ffffff" fill-opacity="1"><g transform="translate(176.513772, 224.133575)"><g></g></g></g><g fill="#ffffff" fill-opacity="1"><g transform="translate(354.722793, 224.133575)"><g><path d="M 15.125 0 L 15.125 -169.453125 L 86.84375 -169.453125 C 98.945312 -169.453125 109.640625 -168.140625 118.921875 -165.515625 C 128.203125 -162.890625 135.460938 -158.753906 140.703125 -153.109375 C 145.953125 -147.460938 148.578125 -139.898438 148.578125 -130.421875 C 148.578125 -123.765625 146.101562 -117.507812 141.15625 -111.65625 C 136.21875 -105.800781 130.066406 -101.054688 122.703125 -97.421875 C 115.335938 -93.796875 107.820312 -91.984375 100.15625 -91.984375 C 110.238281 -91.984375 118.359375 -90.671875 124.515625 -88.046875 C 130.671875 -85.429688 135.664062 -81.597656 139.5 -76.546875 C 143.332031 -71.503906 146.707031 -65.453125 149.625 -58.390625 C 152.550781 -51.335938 155.734375 -43.269531 159.171875 -34.1875 C 162.796875 -24.914062 166.269531 -17.804688 169.59375 -12.859375 C 172.925781 -7.921875 175.648438 -4.539062 177.765625 -2.71875 C 179.890625 -0.90625 180.953125 0 180.953125 0 C 180.953125 0 178.125 0.351562 172.46875 1.0625 C 166.820312 1.769531 158.253906 1.414062 146.765625 0 C 137.273438 -1.207031 130.007812 -4.28125 124.96875 -9.21875 C 119.925781 -14.164062 116.039062 -20.066406 113.3125 -26.921875 C 110.59375 -33.785156 108.222656 -40.945312 106.203125 -48.40625 C 104.191406 -55.875 101.671875 -62.882812 98.640625 -69.4375 C 95.617188 -76 91.179688 -81.296875 85.328125 -85.328125 C 79.484375 -89.367188 71.316406 -91.390625 60.828125 -91.390625 L 60.828125 0 Z M 60.828125 -93.796875 L 76.859375 -93.796875 C 85.929688 -93.796875 92.082031 -97.125 95.3125 -103.78125 C 98.539062 -110.445312 100.15625 -119.023438 100.15625 -129.515625 C 100.15625 -140.203125 98.335938 -149.175781 94.703125 -156.4375 C 91.078125 -163.695312 84.722656 -167.328125 75.640625 -167.328125 L 60.828125 -167.328125 Z M 60.828125 -93.796875 "/></g></g></g><g fill="#ffffff" fill-opacity="1"><g transform="translate(545.336833, 224.133575)"><g><path d="M 15.125 0 L 15.125 -169.453125 L 74.4375 -169.453125 C 88.5625 -169.648438 101.171875 -168.285156 112.265625 -165.359375 C 123.359375 -162.441406 132.179688 -158.054688 138.734375 -152.203125 C 145.296875 -146.347656 148.578125 -139.085938 148.578125 -130.421875 C 148.578125 -118.109375 144.035156 -109.078125 134.953125 -103.328125 C 125.878906 -97.585938 114.382812 -93.910156 100.46875 -92.296875 C 107.519531 -91.484375 114.625 -90.066406 121.78125 -88.046875 C 128.945312 -86.035156 135.609375 -83.265625 141.765625 -79.734375 C 147.921875 -76.203125 152.863281 -71.710938 156.59375 -66.265625 C 160.320312 -60.816406 162.1875 -54.363281 162.1875 -46.90625 C 162.1875 -37.425781 158.65625 -29.203125 151.59375 -22.234375 C 144.539062 -15.273438 135.0625 -9.929688 123.15625 -6.203125 C 111.25 -2.472656 98.035156 -0.40625 83.515625 0 Z M 60.828125 -94.109375 L 82 -94.109375 C 87.039062 -94.109375 90.820312 -96.023438 93.34375 -99.859375 C 95.863281 -103.691406 97.628906 -108.378906 98.640625 -113.921875 C 99.648438 -119.472656 100.15625 -124.671875 100.15625 -129.515625 C 100.15625 -140.203125 98.335938 -149.175781 94.703125 -156.4375 C 91.078125 -163.695312 84.722656 -167.328125 75.640625 -167.328125 L 60.828125 -167.328125 Z M 60.828125 -3.03125 L 76.859375 -3.03125 C 89.972656 -3.03125 98.644531 -6.609375 102.875 -13.765625 C 107.113281 -20.929688 109.234375 -31.570312 109.234375 -45.6875 C 109.234375 -61.21875 106.863281 -72.613281 102.125 -79.875 C 97.382812 -87.144531 88.253906 -90.78125 74.734375 -90.78125 L 60.828125 -90.78125 Z M 60.828125 -3.03125 "/></g></g></g><g fill="#ffffff" fill-opacity="1"><g transform="translate(720.217726, 224.133575)"><g><path d="M 15.125 0 L 15.125 -169.453125 L 144.640625 -169.453125 L 144.640625 -113.171875 L 141.609375 -113.171875 C 141.609375 -123.660156 139.085938 -132.890625 134.046875 -140.859375 C 129.003906 -148.828125 121.992188 -155.078125 113.015625 -159.609375 C 104.035156 -164.148438 93.695312 -166.421875 82 -166.421875 L 60.828125 -166.421875 L 60.828125 -87.75 L 64.453125 -87.75 C 77.359375 -87.957031 87.59375 -91.238281 95.15625 -97.59375 C 102.726562 -103.945312 106.515625 -112.972656 106.515625 -124.671875 L 110.140625 -124.671875 L 110.140625 -47.8125 L 106.515625 -47.8125 C 106.515625 -59.3125 102.726562 -68.285156 95.15625 -74.734375 C 87.59375 -81.191406 77.5625 -84.519531 65.0625 -84.71875 L 60.828125 -84.71875 L 60.828125 -3.03125 L 82 -3.03125 C 93.695312 -3.03125 104.789062 -5.398438 115.28125 -10.140625 C 125.769531 -14.878906 134.441406 -21.382812 141.296875 -29.65625 C 148.160156 -37.925781 151.894531 -47.304688 152.5 -57.796875 L 155.53125 -57.796875 L 150.390625 0 Z M 15.125 0 "/></g></g></g><g fill="#ffffff" fill-opacity="1"><g transform="translate(896.006276, 224.133575)"><g><path d="M 15.125 0 L 15.125 -169.453125 L 86.84375 -169.453125 C 98.945312 -169.453125 109.640625 -168.140625 118.921875 -165.515625 C 128.203125 -162.890625 135.460938 -158.753906 140.703125 -153.109375 C 145.953125 -147.460938 148.578125 -139.898438 148.578125 -130.421875 C 148.578125 -123.765625 146.101562 -117.507812 141.15625 -111.65625 C 136.21875 -105.800781 130.066406 -101.054688 122.703125 -97.421875 C 115.335938 -93.796875 107.820312 -91.984375 100.15625 -91.984375 C 110.238281 -91.984375 118.359375 -90.671875 124.515625 -88.046875 C 130.671875 -85.429688 135.664062 -81.597656 139.5 -76.546875 C 143.332031 -71.503906 146.707031 -65.453125 149.625 -58.390625 C 152.550781 -51.335938 155.734375 -43.269531 159.171875 -34.1875 C 162.796875 -24.914062 166.269531 -17.804688 169.59375 -12.859375 C 172.925781 -7.921875 175.648438 -4.539062 177.765625 -2.71875 C 179.890625 -0.90625 180.953125 0 180.953125 0 C 180.953125 0 178.125 0.351562 172.46875 1.0625 C 166.820312 1.769531 158.253906 1.414062 146.765625 0 C 137.273438 -1.207031 130.007812 -4.28125 124.96875 -9.21875 C 119.925781 -14.164062 116.039062 -20.066406 113.3125 -26.921875 C 110.59375 -33.785156 108.222656 -40.945312 106.203125 -48.40625 C 104.191406 -55.875 101.671875 -62.882812 98.640625 -69.4375 C 95.617188 -76 91.179688 -81.296875 85.328125 -85.328125 C 79.484375 -89.367188 71.316406 -91.390625 60.828125 -91.390625 L 60.828125 0 Z M 60.828125 -93.796875 L 76.859375 -93.796875 C 85.929688 -93.796875 92.082031 -97.125 95.3125 -103.78125 C 98.539062 -110.445312 100.15625 -119.023438 100.15625 -129.515625 C 100.15625 -140.203125 98.335938 -149.175781 94.703125 -156.4375 C 91.078125 -163.695312 84.722656 -167.328125 75.640625 -167.328125 L 60.828125 -167.328125 Z M 60.828125 -93.796875 "/></g></g></g></g></g><g clip-path="url(#31d7a469bb)"><g transform="matrix(1, 0, 0, 1, 409, 517)"><g clip-path="url(#00fee502c9)"><g clip-path="url(#8b32dee503)"><path fill="transparent" d="M 0.917969 0.359375 L 182.246094 0.359375 L 182.246094 292.179688 L 0.917969 292.179688 Z M 0.917969 0.359375 " fill-opacity="1" fill-rule="nonzero"/></g></g></g></g><g clip-path="url(#437efc7c9e)"><path fill="#dfa651" d="M 573.398438 787.75 C 576.554688 784.648438 580.429688 774.78125 580.429688 761.675781 C 580.429688 750.40625 577.566406 736.746094 568.910156 722.9375 C 555.972656 702.289062 533.648438 676.484375 516.65625 657.261719 C 520.015625 652.1875 522.285156 648.785156 523.003906 647.761719 C 526.851562 642.277344 530.113281 632.996094 531.121094 621.582031 C 532.847656 622.382812 534.6875 623.066406 536.664062 623.601562 C 556.125 628.898438 571.988281 617.261719 578.304688 594.046875 C 584.609375 570.839844 576.679688 552.734375 557.363281 547.476562 C 537.898438 542.1875 522.042969 553.820312 515.722656 577.03125 C 514.664062 580.9375 513.992188 585.269531 513.867188 588.210938 C 513.09375 606.6875 513.566406 624.324219 510.503906 630.453125 C 509.753906 631.949219 506.683594 635.644531 502.144531 640.847656 C 497.597656 635.636719 494.535156 631.953125 493.785156 630.453125 C 490.722656 624.324219 491.195312 606.6875 490.421875 588.210938 C 490.296875 585.269531 489.625 580.9375 488.566406 577.03125 C 482.390625 554.355469 467.113281 542.738281 448.261719 547.148438 C 447.992188 546.878906 447.714844 546.609375 447.441406 546.324219 C 442.679688 541.457031 443.738281 530.949219 437.105469 532.476562 C 430.535156 533.984375 429.851562 548.242188 432.746094 555.4375 C 426.933594 561.246094 423.859375 569.417969 423.859375 579.144531 C 423.859375 583.789062 424.554688 588.785156 425.984375 594.046875 C 432.300781 617.261719 448.164062 628.898438 467.621094 623.601562 C 469.601562 623.066406 471.441406 622.382812 473.167969 621.582031 C 474.175781 632.996094 477.4375 642.277344 481.285156 647.761719 C 486.507812 655.214844 573.398438 787.75 573.398438 787.75 Z M 540.582031 609.1875 C 530.492188 606.445312 531.546875 595.734375 535.191406 582.328125 C 538.839844 568.917969 543.496094 559.191406 553.445312 561.898438 C 563.386719 564.605469 562.484375 575.351562 558.828125 588.761719 C 555.152344 602.308594 550.675781 611.929688 540.582031 609.1875 Z M 445.457031 588.761719 C 443.945312 583.222656 442.90625 578.136719 442.90625 573.886719 C 442.90625 567.847656 445.007812 563.488281 450.84375 561.898438 C 460.792969 559.191406 465.449219 568.917969 469.09375 582.328125 C 470.617188 587.914062 471.683594 593.03125 471.683594 597.300781 C 471.683594 603.277344 469.589844 607.585938 463.703125 609.1875 C 453.613281 611.929688 449.136719 602.308594 445.457031 588.761719 Z M 445.457031 588.761719 " fill-opacity="1" fill-rule="nonzero"/></g><g clip-path="url(#bf294d66a9)"><path fill="#dfa651" d="M 484.089844 661.277344 C 467.640625 679.980469 447.433594 703.699219 435.375 722.9375 C 416.660156 752.808594 425.019531 781.984375 430.890625 787.75 C 430.890625 787.75 471.679688 725.527344 499.046875 683.953125 C 493.167969 675.023438 487.996094 667.183594 484.089844 661.277344 Z M 484.089844 661.277344 " fill-opacity="1" fill-rule="nonzero"/></g><g transform="matrix(1, 0, 0, 1, 342, 864)"><g clip-path="url(#6787b08527)"><g fill="#dfa651" fill-opacity="1"><g transform="translate(1.079694, 46.119961)"><g><path d="M 29.53125 0.546875 L 28.6875 0.546875 L 6.875 -26.734375 L 6.671875 -26.734375 L 6.671875 0 L 4.484375 0 L 4.484375 -32.96875 L 8.171875 -32.96875 L 27.140625 -9.015625 L 27.34375 -9.015625 L 27.34375 -32.96875 L 29.53125 -32.96875 Z M 29.53125 0.546875 "/></g></g></g><g fill="#dfa651" fill-opacity="1"><g transform="translate(74.935391, 46.119961)"><g><path d="M 4.484375 0 L 4.484375 -32.96875 L 24.453125 -32.96875 L 23.953125 -29.625 L 14.6875 -31.171875 C 13.0625 -31.171875 11.269531 -30.890625 9.3125 -30.328125 L 9.3125 -18.21875 L 20.359375 -18.21875 L 20.359375 -16.328125 L 9.3125 -16.328125 L 9.3125 -1.796875 L 24.75 -3.34375 L 24.25 0 Z M 4.484375 0 "/></g></g></g><g fill="#dfa651" fill-opacity="1"><g transform="translate(142.766668, 46.119961)"><g><path d="M 39.640625 -32.96875 L 42.125 -32.96875 L 29.78125 0.75 L 28.984375 0.75 L 21.359375 -19.671875 L 13.890625 0.75 L 13.09375 0.75 L 0.5 -32.96875 L 5.921875 -32.96875 L 14.6875 -5.96875 L 20.265625 -22.609375 L 16.390625 -32.96875 L 21.8125 -32.96875 L 30.578125 -5.96875 Z M 39.640625 -32.96875 "/></g></g></g><g fill="#dfa651" fill-opacity="1"><g transform="translate(225.235787, 46.119961)"><g/></g></g><g fill="#dfa651" fill-opacity="1"><g transform="translate(277.533035, 46.119961)"><g><path d="M 4.484375 0 L 4.484375 -32.96875 L 13.890625 -32.96875 C 17.710938 -32.96875 20.75 -32.316406 23 -31.015625 C 25.257812 -29.722656 26.390625 -27.785156 26.390625 -25.203125 C 26.390625 -23.367188 25.75 -21.78125 24.46875 -20.4375 C 23.195312 -19.09375 21.414062 -18.070312 19.125 -17.375 C 22.144531 -16.8125 24.425781 -15.789062 25.96875 -14.3125 C 27.507812 -12.832031 28.28125 -11.210938 28.28125 -9.453125 C 28.28125 -7.703125 27.832031 -6.203125 26.9375 -4.953125 C 26.039062 -3.710938 24.894531 -2.757812 23.5 -2.09375 C 20.675781 -0.695312 17.789062 0 14.84375 0 Z M 9.3125 -17.875 L 12.890625 -17.875 C 15.910156 -17.875 18.078125 -18.546875 19.390625 -19.890625 C 20.703125 -21.234375 21.359375 -22.921875 21.359375 -24.953125 C 21.359375 -26.304688 20.898438 -27.539062 19.984375 -28.65625 C 19.078125 -29.769531 17.675781 -30.609375 15.78125 -31.171875 C 13.53125 -31.171875 11.375 -30.835938 9.3125 -30.171875 Z M 9.3125 -16.4375 L 9.3125 -2.234375 C 10.375 -1.910156 12.015625 -1.75 14.234375 -1.75 C 16.460938 -1.75 18.4375 -2.359375 20.15625 -3.578125 C 21.882812 -4.804688 22.75 -6.515625 22.75 -8.703125 C 22.75 -10.898438 21.800781 -12.738281 19.90625 -14.21875 C 18.019531 -15.695312 15.75 -16.4375 13.09375 -16.4375 Z M 9.3125 -16.4375 "/></g></g></g><g fill="#dfa651" fill-opacity="1"><g transform="translate(349.446969, 46.119961)"><g><path d="M 9.359375 -15.734375 L 9.359375 0 L 4.484375 0 L 4.484375 -32.96875 L 15.234375 -32.96875 C 18.585938 -32.96875 21.332031 -32.21875 23.46875 -30.71875 C 25.613281 -29.226562 26.6875 -27.257812 26.6875 -24.8125 C 26.6875 -22.375 25.832031 -20.453125 24.125 -19.046875 C 22.414062 -17.640625 20.101562 -16.671875 17.1875 -16.140625 L 30.53125 0 L 24.75 0.703125 L 13.203125 -15.734375 Z M 9.359375 -17.234375 L 12.546875 -17.234375 C 18.523438 -17.234375 21.515625 -19.585938 21.515625 -24.296875 C 21.515625 -25.097656 21.316406 -25.992188 20.921875 -26.984375 C 20.148438 -29.078125 18.519531 -30.457031 16.03125 -31.125 C 13.769531 -31.125 11.546875 -30.84375 9.359375 -30.28125 Z M 9.359375 -17.234375 "/></g></g></g><g fill="#dfa651" fill-opacity="1"><g transform="translate(421.062179, 46.119961)"><g><path d="M 0.5 0 L 15.28125 -33.765625 L 16.03125 -33.765625 L 30.828125 0 L 25.390625 0 L 21.65625 -8.96875 L 6.875 -8.96875 L 3.1875 0 Z M 7.625 -10.859375 L 20.859375 -10.859375 L 14.296875 -26.984375 Z M 7.625 -10.859375 "/></g></g></g><g fill="#dfa651" fill-opacity="1"><g transform="translate(492.229297, 46.119961)"><g><path d="M 28.984375 -32.96875 L 28.984375 -12.75 C 28.984375 -9.65625 28.648438 -7.332031 27.984375 -5.78125 C 27.679688 -5.082031 27.207031 -4.289062 26.5625 -3.40625 C 25.914062 -2.53125 25.160156 -1.828125 24.296875 -1.296875 C 22.109375 -0.0351562 19.367188 0.59375 16.078125 0.59375 C 7.847656 0.59375 3.734375 -3.632812 3.734375 -12.09375 L 3.734375 -32.96875 L 8.8125 -32.96875 L 8.8125 -11.703125 C 8.8125 -10.742188 8.828125 -9.960938 8.859375 -9.359375 C 8.890625 -8.765625 9.0625 -7.914062 9.375 -6.8125 C 9.695312 -5.71875 10.128906 -4.835938 10.671875 -4.171875 C 11.222656 -3.515625 12.085938 -2.921875 13.265625 -2.390625 C 14.441406 -1.859375 15.847656 -1.59375 17.484375 -1.59375 C 23.691406 -1.59375 26.796875 -4.910156 26.796875 -11.546875 L 26.796875 -32.96875 Z M 28.984375 -32.96875 "/></g></g></g><g fill="#dfa651" fill-opacity="1"><g transform="translate(564.79049, 46.119961)"><g><path d="M 29.53125 0.546875 L 28.6875 0.546875 L 6.875 -26.734375 L 6.671875 -26.734375 L 6.671875 0 L 4.484375 0 L 4.484375 -32.96875 L 8.171875 -32.96875 L 27.140625 -9.015625 L 27.34375 -9.015625 L 27.34375 -32.96875 L 29.53125 -32.96875 Z M 29.53125 0.546875 "/></g></g></g><g fill="#dfa651" fill-opacity="1"><g transform="translate(638.646169, 46.119961)"><g><path d="M 9.3125 -18.21875 L 19.875 -18.21875 L 19.875 -16.328125 L 9.3125 -16.328125 L 9.3125 0 L 4.484375 0 L 4.484375 -32.96875 L 23.953125 -32.96875 L 23.953125 -29.625 L 14.734375 -31.171875 C 13.078125 -31.171875 11.269531 -30.890625 9.3125 -30.328125 Z M 9.3125 -18.21875 "/></g></g></g><g fill="#dfa651" fill-opacity="1"><g transform="translate(702.444569, 46.119961)"><g><path d="M 4.484375 0 L 4.484375 -32.96875 L 24.453125 -32.96875 L 23.953125 -29.625 L 14.6875 -31.171875 C 13.0625 -31.171875 11.269531 -30.890625 9.3125 -30.328125 L 9.3125 -18.21875 L 20.359375 -18.21875 L 20.359375 -16.328125 L 9.3125 -16.328125 L 9.3125 -1.796875 L 24.75 -3.34375 L 24.25 0 Z M 4.484375 0 "/></g></g></g><g fill="#dfa651" fill-opacity="1"><g transform="translate(770.275883, 46.119961)"><g><path d="M 4.484375 0 L 4.484375 -32.96875 L 9.359375 -32.96875 L 9.359375 -2.6875 C 11.390625 -2.09375 13.015625 -1.796875 14.234375 -1.796875 L 23.25 -3.34375 L 22.65625 0 Z M 4.484375 0 "/></g></g></g><g fill="#dfa651" fill-opacity="1"><g transform="translate(834.372987, 46.119961)"><g><path d="M 8.0625 -27.234375 C 8.0625 -25.773438 8.632812 -24.421875 9.78125 -23.171875 C 10.925781 -21.929688 12.320312 -20.835938 13.96875 -19.890625 C 15.613281 -18.941406 17.25 -17.976562 18.875 -17 C 20.5 -16.019531 21.882812 -14.816406 23.03125 -13.390625 C 24.175781 -11.960938 24.75 -10.390625 24.75 -8.671875 C 24.75 -5.941406 23.742188 -3.710938 21.734375 -1.984375 C 19.722656 -0.265625 17.007812 0.59375 13.59375 0.59375 C 10.175781 0.59375 6.789062 -0.0507812 3.4375 -1.34375 L 3.4375 -3.6875 C 6.820312 -1.988281 9.703125 -1.140625 12.078125 -1.140625 C 14.453125 -1.140625 16.300781 -1.71875 17.625 -2.875 C 18.957031 -4.039062 19.625 -5.65625 19.625 -7.71875 C 19.625 -9.113281 19.070312 -10.382812 17.96875 -11.53125 C 16.875 -12.675781 15.546875 -13.671875 13.984375 -14.515625 C 12.429688 -15.359375 10.875 -16.226562 9.3125 -17.125 C 7.75 -18.019531 6.421875 -19.15625 5.328125 -20.53125 C 4.234375 -21.914062 3.6875 -23.585938 3.6875 -25.546875 C 3.6875 -27.503906 4.554688 -29.328125 6.296875 -31.015625 C 8.035156 -32.710938 10.632812 -33.5625 14.09375 -33.5625 C 16.351562 -33.5625 19.207031 -33.046875 22.65625 -32.015625 L 22.15625 -28.640625 C 17.675781 -30.554688 13.84375 -31.515625 10.65625 -31.515625 C 8.925781 -30.691406 8.0625 -29.265625 8.0625 -27.234375 Z M 8.0625 -27.234375 "/></g></g></g></g></g></svg>